<mxfile host="app.diagrams.net" modified="2022-06-24T14:04:43.879Z" agent="5.0 (Windows NT 10.0; Win64; x64) AppleWebKit/537.36 (KHTML, like Gecko) Chrome/103.0.0.0 Safari/537.36" etag="FXMX8G1XiIzApossy4Rg" version="18.1.1" type="github">
  <diagram id="7CVTtwa1rDNcSqBKjKmB" name="Page-1">
    <mxGraphModel dx="2302" dy="1114" grid="1" gridSize="10" guides="0" tooltips="1" connect="1" arrows="1" fold="1" page="1" pageScale="1" pageWidth="850" pageHeight="1100" math="0" shadow="0">
      <root>
        <mxCell id="VdEeXPEz472dkXEGbix_-0" />
        <mxCell id="VdEeXPEz472dkXEGbix_-1" parent="VdEeXPEz472dkXEGbix_-0" />
        <object placeholders="1" c4Name="Communication Module" c4Type="Software System" c4Description="Communicating module handling payloads&#xa;[Kafka Broker]" label="&lt;font style=&quot;font-size: 16px&quot;&gt;&lt;b&gt;%c4Name%&lt;/b&gt;&lt;/font&gt;&lt;div&gt;[%c4Type%]&lt;/div&gt;&lt;br&gt;&lt;div&gt;&lt;font style=&quot;font-size: 11px&quot;&gt;&lt;font color=&quot;#cccccc&quot;&gt;%c4Description%&lt;/font&gt;&lt;/div&gt;" id="h4q5f8DIi85qn1IgUrig-62">
          <mxCell style="rounded=1;whiteSpace=wrap;html=1;labelBackgroundColor=none;fillColor=#1061B0;fontColor=#ffffff;align=center;arcSize=10;strokeColor=#0D5091;metaEdit=1;resizable=0;points=[[0.25,0,0],[0.5,0,0],[0.75,0,0],[1,0.25,0],[1,0.5,0],[1,0.75,0],[0.75,1,0],[0.5,1,0],[0.25,1,0],[0,0.75,0],[0,0.5,0],[0,0.25,0]];" parent="VdEeXPEz472dkXEGbix_-1" vertex="1">
            <mxGeometry x="1050" y="366.25" width="240" height="120" as="geometry" />
          </mxCell>
        </object>
        <object placeholders="1" c4Type="Web Application" c4Container="Application" c4Technology="Web GUI" c4Description="Web GUI showing the results&#xa;[External Display]" label="&lt;font style=&quot;font-size: 16px&quot;&gt;&lt;b&gt;%c4Type%&lt;/font&gt;&lt;div&gt;[%c4Container%:&amp;nbsp;%c4Technology%]&lt;/div&gt;&lt;br&gt;&lt;div&gt;&lt;font style=&quot;font-size: 11px&quot;&gt;&lt;font color=&quot;#E6E6E6&quot;&gt;%c4Description%&lt;/font&gt;&lt;/div&gt;" id="h4q5f8DIi85qn1IgUrig-61">
          <mxCell style="shape=mxgraph.c4.webBrowserContainer;whiteSpace=wrap;html=1;boundedLbl=1;rounded=0;labelBackgroundColor=none;fillColor=#118ACD;fontSize=12;fontColor=#ffffff;align=center;strokeColor=#0E7DAD;metaEdit=1;points=[[0.5,0,0],[1,0.25,0],[1,0.5,0],[1,0.75,0],[0.5,1,0],[0,0.75,0],[0,0.5,0],[0,0.25,0]];resizable=0;" parent="VdEeXPEz472dkXEGbix_-1" vertex="1">
            <mxGeometry x="680" y="900" width="240" height="160" as="geometry" />
          </mxCell>
        </object>
        <object placeholders="1" c4Name="Data Post-processing Module" c4Type="Software System" c4Description="Match the classes of the received raw data " label="&lt;font style=&quot;font-size: 16px&quot;&gt;&lt;b&gt;%c4Name%&lt;/b&gt;&lt;/font&gt;&lt;div&gt;[%c4Type%]&lt;/div&gt;&lt;br&gt;&lt;div&gt;&lt;font style=&quot;font-size: 11px&quot;&gt;&lt;font color=&quot;#cccccc&quot;&gt;%c4Description%&lt;/font&gt;&lt;/div&gt;" id="h4q5f8DIi85qn1IgUrig-49">
          <mxCell style="rounded=1;whiteSpace=wrap;html=1;labelBackgroundColor=none;fillColor=#1061B0;fontColor=#ffffff;align=center;arcSize=10;strokeColor=#0D5091;metaEdit=1;resizable=0;points=[[0.25,0,0],[0.5,0,0],[0.75,0,0],[1,0.25,0],[1,0.5,0],[1,0.75,0],[0.75,1,0],[0.5,1,0],[0.25,1,0],[0,0.75,0],[0,0.5,0],[0,0.25,0]];" parent="VdEeXPEz472dkXEGbix_-1" vertex="1">
            <mxGeometry x="1180" y="630" width="240" height="120" as="geometry" />
          </mxCell>
        </object>
        <object placeholders="1" c4Name="Raspberry Pi" c4Type="SystemScopeBoundary" c4Application="Raspberry Pi OS" label="&lt;font style=&quot;font-size: 16px&quot;&gt;&lt;b&gt;&lt;div style=&quot;text-align: left&quot;&gt;%c4Name%&lt;/div&gt;&lt;/b&gt;&lt;/font&gt;&lt;div style=&quot;text-align: left&quot;&gt;[%c4Application%]&lt;/div&gt;" id="h4q5f8DIi85qn1IgUrig-0">
          <mxCell style="rounded=1;fontSize=11;whiteSpace=wrap;html=1;dashed=1;arcSize=20;fillColor=none;strokeColor=#666666;fontColor=#333333;labelBackgroundColor=none;align=left;verticalAlign=bottom;labelBorderColor=none;spacingTop=0;spacing=10;dashPattern=8 4;metaEdit=1;rotatable=0;perimeter=rectanglePerimeter;noLabel=0;labelPadding=0;allowArrows=0;connectable=0;expand=0;recursiveResize=0;editable=1;pointerEvents=0;absoluteArcSize=1;points=[[0.25,0,0],[0.5,0,0],[0.75,0,0],[1,0.25,0],[1,0.5,0],[1,0.75,0],[0.75,1,0],[0.5,1,0],[0.25,1,0],[0,0.75,0],[0,0.5,0],[0,0.25,0]];" parent="VdEeXPEz472dkXEGbix_-1" vertex="1">
            <mxGeometry x="40" y="140" width="580" height="690" as="geometry" />
          </mxCell>
        </object>
        <mxCell id="h4q5f8DIi85qn1IgUrig-22" value="" style="edgeStyle=orthogonalEdgeStyle;rounded=0;orthogonalLoop=1;jettySize=auto;html=1;endArrow=none;endFill=0;" parent="VdEeXPEz472dkXEGbix_-1" source="h4q5f8DIi85qn1IgUrig-1" edge="1">
          <mxGeometry relative="1" as="geometry">
            <mxPoint x="310" y="220" as="targetPoint" />
          </mxGeometry>
        </mxCell>
        <object c4Name="Camera 1" c4Type="Component" c4Technology="Camera Sensor" c4Description="Mounted Camera Modules" label="&lt;font style=&quot;font-size: 16px&quot;&gt;&lt;b&gt;%c4Name%&lt;/b&gt;&lt;/font&gt;&lt;div&gt;[%c4Type%: %c4Technology%]&lt;/div&gt;&lt;br&gt;&lt;div&gt;&lt;font style=&quot;font-size: 11px&quot;&gt;%c4Description%&lt;/font&gt;&lt;/div&gt;" placeholders="1" id="h4q5f8DIi85qn1IgUrig-1">
          <mxCell style="rounded=1;whiteSpace=wrap;html=1;labelBackgroundColor=none;fillColor=#dae8fc;align=center;arcSize=6;strokeColor=#6c8ebf;metaEdit=1;resizable=0;points=[[0.25,0,0],[0.5,0,0],[0.75,0,0],[1,0.25,0],[1,0.5,0],[1,0.75,0],[0.75,1,0],[0.5,1,0],[0.25,1,0],[0,0.75,0],[0,0.5,0],[0,0.25,0]];imageHeight=24;imageWidth=24;" parent="VdEeXPEz472dkXEGbix_-1" vertex="1">
            <mxGeometry x="50" y="160" width="240" height="120" as="geometry" />
          </mxCell>
        </object>
        <mxCell id="h4q5f8DIi85qn1IgUrig-21" value="" style="edgeStyle=orthogonalEdgeStyle;rounded=0;orthogonalLoop=1;jettySize=auto;html=1;endArrow=none;endFill=0;" parent="VdEeXPEz472dkXEGbix_-1" source="h4q5f8DIi85qn1IgUrig-2" edge="1">
          <mxGeometry relative="1" as="geometry">
            <mxPoint x="310" y="350" as="targetPoint" />
          </mxGeometry>
        </mxCell>
        <object c4Name="Camera 2" c4Type="Component" c4Technology="Camera Sensor" c4Description="Mounted Camera Modules" label="&lt;font style=&quot;font-size: 16px&quot;&gt;&lt;b&gt;%c4Name%&lt;/b&gt;&lt;/font&gt;&lt;div&gt;[%c4Type%: %c4Technology%]&lt;/div&gt;&lt;br&gt;&lt;div&gt;&lt;font style=&quot;font-size: 11px&quot;&gt;%c4Description%&lt;/font&gt;&lt;/div&gt;" placeholders="1" id="h4q5f8DIi85qn1IgUrig-2">
          <mxCell style="rounded=1;whiteSpace=wrap;html=1;labelBackgroundColor=none;fillColor=#dae8fc;align=center;arcSize=6;strokeColor=#6c8ebf;metaEdit=1;resizable=0;points=[[0.25,0,0],[0.5,0,0],[0.75,0,0],[1,0.25,0],[1,0.5,0],[1,0.75,0],[0.75,1,0],[0.5,1,0],[0.25,1,0],[0,0.75,0],[0,0.5,0],[0,0.25,0]];imageHeight=24;imageWidth=24;" parent="VdEeXPEz472dkXEGbix_-1" vertex="1">
            <mxGeometry x="50" y="290" width="240" height="120" as="geometry" />
          </mxCell>
        </object>
        <object c4Name="Camera 3" c4Type="Component" c4Technology="Camera Sensor" c4Description="Mounted Camera Modules" label="&lt;font style=&quot;font-size: 16px&quot;&gt;&lt;b&gt;%c4Name%&lt;/b&gt;&lt;/font&gt;&lt;div&gt;[%c4Type%: %c4Technology%]&lt;/div&gt;&lt;br&gt;&lt;div&gt;&lt;font style=&quot;font-size: 11px&quot;&gt;%c4Description%&lt;/font&gt;&lt;/div&gt;" placeholders="1" id="h4q5f8DIi85qn1IgUrig-3">
          <mxCell style="rounded=1;whiteSpace=wrap;html=1;labelBackgroundColor=none;fillColor=#dae8fc;align=center;arcSize=6;strokeColor=#6c8ebf;metaEdit=1;resizable=0;points=[[0.25,0,0],[0.5,0,0],[0.75,0,0],[1,0.25,0],[1,0.5,0],[1,0.75,0],[0.75,1,0],[0.5,1,0],[0.25,1,0],[0,0.75,0],[0,0.5,0],[0,0.25,0]];imageHeight=24;imageWidth=24;" parent="VdEeXPEz472dkXEGbix_-1" vertex="1">
            <mxGeometry x="50" y="420" width="240" height="120" as="geometry" />
          </mxCell>
        </object>
        <mxCell id="h4q5f8DIi85qn1IgUrig-24" value="" style="edgeStyle=orthogonalEdgeStyle;rounded=0;orthogonalLoop=1;jettySize=auto;html=1;endArrow=none;endFill=0;fillColor=#fa6800;strokeColor=#FF0000;" parent="VdEeXPEz472dkXEGbix_-1" source="h4q5f8DIi85qn1IgUrig-4" target="h4q5f8DIi85qn1IgUrig-2" edge="1">
          <mxGeometry relative="1" as="geometry" />
        </mxCell>
        <object c4Name="Position Sensor" c4Type="Component" c4Technology="Position Sensor" c4Description="Position Sensor for Rotating Plate" label="&lt;font style=&quot;font-size: 16px&quot;&gt;&lt;b&gt;%c4Name%&lt;/b&gt;&lt;/font&gt;&lt;div&gt;[%c4Type%: %c4Technology%]&lt;/div&gt;&lt;br&gt;&lt;div&gt;&lt;font style=&quot;font-size: 11px&quot;&gt;%c4Description%&lt;/font&gt;&lt;/div&gt;" placeholders="1" id="h4q5f8DIi85qn1IgUrig-4">
          <mxCell style="rounded=1;whiteSpace=wrap;html=1;labelBackgroundColor=none;fillColor=#d5e8d4;align=center;arcSize=6;strokeColor=#82b366;metaEdit=1;resizable=0;points=[[0.25,0,0],[0.5,0,0],[0.75,0,0],[1,0.25,0],[1,0.5,0],[1,0.75,0],[0.75,1,0],[0.5,1,0],[0.25,1,0],[0,0.75,0],[0,0.5,0],[0,0.25,0]];imageHeight=24;imageWidth=24;" parent="VdEeXPEz472dkXEGbix_-1" vertex="1">
            <mxGeometry x="340" y="290" width="240" height="120" as="geometry" />
          </mxCell>
        </object>
        <mxCell id="h4q5f8DIi85qn1IgUrig-25" value="" style="edgeStyle=orthogonalEdgeStyle;rounded=0;orthogonalLoop=1;jettySize=auto;html=1;endArrow=none;endFill=0;fillColor=#fa6800;strokeColor=#FF0000;" parent="VdEeXPEz472dkXEGbix_-1" source="h4q5f8DIi85qn1IgUrig-5" target="h4q5f8DIi85qn1IgUrig-3" edge="1">
          <mxGeometry relative="1" as="geometry" />
        </mxCell>
        <object c4Name="Plate-Motor" c4Type="Component" c4Technology="Stepper Motor" c4Description="Stepper Motor for Rotating Plate" label="&lt;font style=&quot;font-size: 16px&quot;&gt;&lt;b&gt;%c4Name%&lt;/b&gt;&lt;/font&gt;&lt;div&gt;[%c4Type%: %c4Technology%]&lt;/div&gt;&lt;br&gt;&lt;div&gt;&lt;font style=&quot;font-size: 11px&quot;&gt;%c4Description%&lt;/font&gt;&lt;/div&gt;" placeholders="1" id="h4q5f8DIi85qn1IgUrig-5">
          <mxCell style="rounded=1;whiteSpace=wrap;html=1;labelBackgroundColor=none;fillColor=#fff2cc;align=center;arcSize=6;strokeColor=#d6b656;metaEdit=1;resizable=0;points=[[0.25,0,0],[0.5,0,0],[0.75,0,0],[1,0.25,0],[1,0.5,0],[1,0.75,0],[0.75,1,0],[0.5,1,0],[0.25,1,0],[0,0.75,0],[0,0.5,0],[0,0.25,0]];imageHeight=24;imageWidth=24;" parent="VdEeXPEz472dkXEGbix_-1" vertex="1">
            <mxGeometry x="340" y="420" width="240" height="120" as="geometry" />
          </mxCell>
        </object>
        <mxCell id="h4q5f8DIi85qn1IgUrig-23" value="" style="edgeStyle=orthogonalEdgeStyle;rounded=0;orthogonalLoop=1;jettySize=auto;html=1;endArrow=none;endFill=0;fillColor=#fa6800;strokeColor=#FF0000;" parent="VdEeXPEz472dkXEGbix_-1" source="h4q5f8DIi85qn1IgUrig-6" target="h4q5f8DIi85qn1IgUrig-1" edge="1">
          <mxGeometry relative="1" as="geometry" />
        </mxCell>
        <object c4Name="LED Lights" c4Type="Component" c4Technology="Lighting System" c4Description="Lighting for Cameras" label="&lt;font style=&quot;font-size: 16px&quot;&gt;&lt;b&gt;%c4Name%&lt;/b&gt;&lt;/font&gt;&lt;div&gt;[%c4Type%: %c4Technology%]&lt;/div&gt;&lt;br&gt;&lt;div&gt;&lt;font style=&quot;font-size: 11px&quot;&gt;%c4Description%&lt;/font&gt;&lt;/div&gt;" placeholders="1" id="h4q5f8DIi85qn1IgUrig-6">
          <mxCell style="rounded=1;whiteSpace=wrap;html=1;labelBackgroundColor=none;fillColor=#e1d5e7;align=center;arcSize=6;strokeColor=#9673a6;metaEdit=1;resizable=0;points=[[0.25,0,0],[0.5,0,0],[0.75,0,0],[1,0.25,0],[1,0.5,0],[1,0.75,0],[0.75,1,0],[0.5,1,0],[0.25,1,0],[0,0.75,0],[0,0.5,0],[0,0.25,0]];imageHeight=24;imageWidth=24;" parent="VdEeXPEz472dkXEGbix_-1" vertex="1">
            <mxGeometry x="340" y="160" width="240" height="120" as="geometry" />
          </mxCell>
        </object>
        <object placeholders="1" c4Name="Application 1" c4Type="Software System" c4Description="Handling of hardware components&#xa;data/commands exchange to NUC" label="&lt;font style=&quot;font-size: 16px&quot;&gt;&lt;b&gt;%c4Name%&lt;/b&gt;&lt;/font&gt;&lt;div&gt;[%c4Type%]&lt;/div&gt;&lt;br&gt;&lt;div&gt;&lt;font style=&quot;font-size: 11px&quot;&gt;&lt;font color=&quot;#cccccc&quot;&gt;%c4Description%&lt;/font&gt;&lt;/div&gt;" id="h4q5f8DIi85qn1IgUrig-7">
          <mxCell style="rounded=1;whiteSpace=wrap;html=1;labelBackgroundColor=none;fillColor=#1061B0;fontColor=#ffffff;align=center;arcSize=10;strokeColor=#0D5091;metaEdit=1;resizable=0;points=[[0.25,0,0],[0.5,0,0],[0.75,0,0],[1,0.25,0],[1,0.5,0],[1,0.75,0],[0.75,1,0],[0.5,1,0],[0.25,1,0],[0,0.75,0],[0,0.5,0],[0,0.25,0]];" parent="VdEeXPEz472dkXEGbix_-1" vertex="1">
            <mxGeometry x="50" y="550" width="240" height="120" as="geometry" />
          </mxCell>
        </object>
        <object placeholders="1" c4Name="Intel NUC Kit" c4Type="SystemScopeBoundary" c4Application="Linux/Windows" label="&lt;font style=&quot;font-size: 16px&quot;&gt;&lt;b&gt;&lt;div style=&quot;text-align: left&quot;&gt;%c4Name%&lt;/div&gt;&lt;/b&gt;&lt;/font&gt;&lt;div style=&quot;text-align: left&quot;&gt;[%c4Application%]&lt;/div&gt;" id="h4q5f8DIi85qn1IgUrig-8">
          <mxCell style="rounded=1;fontSize=11;whiteSpace=wrap;html=1;dashed=1;arcSize=20;fillColor=none;strokeColor=#666666;fontColor=#333333;labelBackgroundColor=none;align=left;verticalAlign=bottom;labelBorderColor=none;spacingTop=0;spacing=10;dashPattern=8 4;metaEdit=1;rotatable=0;perimeter=rectanglePerimeter;noLabel=0;labelPadding=0;allowArrows=0;connectable=0;expand=0;recursiveResize=0;editable=1;pointerEvents=0;absoluteArcSize=1;points=[[0.25,0,0],[0.5,0,0],[0.75,0,0],[1,0.25,0],[1,0.5,0],[1,0.75,0],[0.75,1,0],[0.5,1,0],[0.25,1,0],[0,0.75,0],[0,0.5,0],[0,0.25,0]];" parent="VdEeXPEz472dkXEGbix_-1" vertex="1">
            <mxGeometry x="640" y="140" width="310" height="690" as="geometry" />
          </mxCell>
        </object>
        <mxCell id="h4q5f8DIi85qn1IgUrig-13" value="" style="endArrow=none;html=1;rounded=0;exitX=1;exitY=0.5;exitDx=0;exitDy=0;exitPerimeter=0;fillColor=#fa6800;strokeColor=#FF0000;" parent="VdEeXPEz472dkXEGbix_-1" source="h4q5f8DIi85qn1IgUrig-7" edge="1">
          <mxGeometry width="50" height="50" relative="1" as="geometry">
            <mxPoint x="720" y="510" as="sourcePoint" />
            <mxPoint x="310" y="610" as="targetPoint" />
          </mxGeometry>
        </mxCell>
        <mxCell id="h4q5f8DIi85qn1IgUrig-14" value="" style="endArrow=none;html=1;rounded=0;fillColor=#60a917;strokeColor=#FF6666;" parent="VdEeXPEz472dkXEGbix_-1" edge="1">
          <mxGeometry width="50" height="50" relative="1" as="geometry">
            <mxPoint x="310" y="610" as="sourcePoint" />
            <mxPoint x="310" y="150" as="targetPoint" />
          </mxGeometry>
        </mxCell>
        <mxCell id="h4q5f8DIi85qn1IgUrig-27" value="" style="shape=actor;whiteSpace=wrap;html=1;fillColor=#4D4D4D;strokeColor=#000000;" parent="VdEeXPEz472dkXEGbix_-1" vertex="1">
          <mxGeometry x="180" y="951" width="40" height="60" as="geometry" />
        </mxCell>
        <mxCell id="h4q5f8DIi85qn1IgUrig-28" value="User" style="text;html=1;align=center;verticalAlign=middle;resizable=0;points=[];autosize=1;strokeColor=none;fillColor=none;" parent="VdEeXPEz472dkXEGbix_-1" vertex="1">
          <mxGeometry x="180" y="1021" width="40" height="20" as="geometry" />
        </mxCell>
        <object placeholders="1" c4Type="Web Application" c4Container="Application" c4Technology="Web UI" c4Description="Web GUI for User interaction&#xa;Status updates, actions, messages&#xa;[Portable Tablet]" label="&lt;font style=&quot;font-size: 16px&quot;&gt;&lt;b&gt;%c4Type%&lt;/font&gt;&lt;div&gt;[%c4Container%:&amp;nbsp;%c4Technology%]&lt;/div&gt;&lt;br&gt;&lt;div&gt;&lt;font style=&quot;font-size: 11px&quot;&gt;&lt;font color=&quot;#E6E6E6&quot;&gt;%c4Description%&lt;/font&gt;&lt;/div&gt;" id="h4q5f8DIi85qn1IgUrig-29">
          <mxCell style="shape=mxgraph.c4.webBrowserContainer;whiteSpace=wrap;html=1;boundedLbl=1;rounded=0;labelBackgroundColor=none;fillColor=#118ACD;fontSize=12;fontColor=#ffffff;align=center;strokeColor=#0E7DAD;metaEdit=1;points=[[0.5,0,0],[1,0.25,0],[1,0.5,0],[1,0.75,0],[0.5,1,0],[0,0.75,0],[0,0.5,0],[0,0.25,0]];resizable=0;" parent="VdEeXPEz472dkXEGbix_-1" vertex="1">
            <mxGeometry x="290" y="901" width="240" height="160" as="geometry" />
          </mxCell>
        </object>
        <mxCell id="h4q5f8DIi85qn1IgUrig-30" value="" style="html=1;verticalLabelPosition=bottom;align=center;labelBackgroundColor=#ffffff;verticalAlign=top;strokeWidth=2;strokeColor=#0080F0;shadow=0;dashed=0;shape=mxgraph.ios7.icons.wifi;pointerEvents=1;fillColor=#4D4D4D;" parent="VdEeXPEz472dkXEGbix_-1" vertex="1">
          <mxGeometry x="530" y="880" width="29.7" height="21" as="geometry" />
        </mxCell>
        <mxCell id="h4q5f8DIi85qn1IgUrig-31" value="" style="shape=doubleArrow;whiteSpace=wrap;html=1;strokeColor=#000000;fillColor=#4D4D4D;" parent="VdEeXPEz472dkXEGbix_-1" vertex="1">
          <mxGeometry x="240" y="966" width="40" height="30" as="geometry" />
        </mxCell>
        <mxCell id="h4q5f8DIi85qn1IgUrig-59" value="" style="edgeStyle=orthogonalEdgeStyle;rounded=0;orthogonalLoop=1;jettySize=auto;html=1;fontSize=13;endArrow=none;endFill=0;strokeColor=#4D4D4D;" parent="VdEeXPEz472dkXEGbix_-1" source="h4q5f8DIi85qn1IgUrig-34" target="h4q5f8DIi85qn1IgUrig-58" edge="1">
          <mxGeometry relative="1" as="geometry" />
        </mxCell>
        <mxCell id="h4q5f8DIi85qn1IgUrig-34" value="" style="fontColor=#0066CC;verticalAlign=top;verticalLabelPosition=bottom;labelPosition=center;align=center;html=1;outlineConnect=0;fillColor=#CCCCCC;strokeColor=#6881B3;gradientColor=none;gradientDirection=north;strokeWidth=2;shape=mxgraph.networks.wireless_modem;" parent="VdEeXPEz472dkXEGbix_-1" vertex="1">
          <mxGeometry x="950" y="850" width="75" height="59" as="geometry" />
        </mxCell>
        <object placeholders="1" c4Name="Communication Module" c4Type="Software System" c4Description="Communicating with Raspberry Pi, AI-Service Platform &amp; Web Application GUI" label="&lt;font style=&quot;font-size: 16px&quot;&gt;&lt;b&gt;%c4Name%&lt;/b&gt;&lt;/font&gt;&lt;div&gt;[%c4Type%]&lt;/div&gt;&lt;br&gt;&lt;div&gt;&lt;font style=&quot;font-size: 11px&quot;&gt;&lt;font color=&quot;#cccccc&quot;&gt;%c4Description%&lt;/font&gt;&lt;/div&gt;" id="h4q5f8DIi85qn1IgUrig-39">
          <mxCell style="rounded=1;whiteSpace=wrap;html=1;labelBackgroundColor=none;fillColor=#1061B0;fontColor=#ffffff;align=center;arcSize=10;strokeColor=#0D5091;metaEdit=1;resizable=0;points=[[0.25,0,0],[0.5,0,0],[0.75,0,0],[1,0.25,0],[1,0.5,0],[1,0.75,0],[0.75,1,0],[0.5,1,0],[0.25,1,0],[0,0.75,0],[0,0.5,0],[0,0.25,0]];" parent="VdEeXPEz472dkXEGbix_-1" vertex="1">
            <mxGeometry x="670" y="440" width="240" height="120" as="geometry" />
          </mxCell>
        </object>
        <object placeholders="1" c4Name="Image Pre-processing Module" c4Type="Software System" c4Description="Image Pre-processing: Merging &amp; Cropping&#xa;" label="&lt;font style=&quot;font-size: 16px&quot;&gt;&lt;b&gt;%c4Name%&lt;/b&gt;&lt;/font&gt;&lt;div&gt;[%c4Type%]&lt;/div&gt;&lt;br&gt;&lt;div&gt;&lt;font style=&quot;font-size: 11px&quot;&gt;&lt;font color=&quot;#cccccc&quot;&gt;%c4Description%&lt;/font&gt;&lt;/div&gt;" id="h4q5f8DIi85qn1IgUrig-42">
          <mxCell style="rounded=1;whiteSpace=wrap;html=1;labelBackgroundColor=none;fillColor=#1061B0;fontColor=#ffffff;align=center;arcSize=10;strokeColor=#0D5091;metaEdit=1;resizable=0;points=[[0.25,0,0],[0.5,0,0],[0.75,0,0],[1,0.25,0],[1,0.5,0],[1,0.75,0],[0.75,1,0],[0.5,1,0],[0.25,1,0],[0,0.75,0],[0,0.5,0],[0,0.25,0]];" parent="VdEeXPEz472dkXEGbix_-1" vertex="1">
            <mxGeometry x="310" y="670" width="240" height="120" as="geometry" />
          </mxCell>
        </object>
        <object placeholders="1" c4Name="AI Service Platform" c4Type="SystemScopeBoundary" c4Application="Cloud/Edge/Server" label="&lt;font style=&quot;font-size: 16px&quot;&gt;&lt;b&gt;&lt;div style=&quot;text-align: left&quot;&gt;%c4Name%&lt;/div&gt;&lt;/b&gt;&lt;/font&gt;&lt;div style=&quot;text-align: left&quot;&gt;[%c4Application%]&lt;/div&gt;" id="h4q5f8DIi85qn1IgUrig-50">
          <mxCell style="rounded=1;fontSize=11;whiteSpace=wrap;html=1;dashed=1;arcSize=20;fillColor=none;strokeColor=#666666;fontColor=#333333;labelBackgroundColor=none;align=left;verticalAlign=bottom;labelBorderColor=none;spacingTop=0;spacing=10;dashPattern=8 4;metaEdit=1;rotatable=0;perimeter=rectanglePerimeter;noLabel=0;labelPadding=0;allowArrows=0;connectable=0;expand=0;recursiveResize=0;editable=1;pointerEvents=0;absoluteArcSize=1;points=[[0.25,0,0],[0.5,0,0],[0.75,0,0],[1,0.25,0],[1,0.5,0],[1,0.75,0],[0.75,1,0],[0.5,1,0],[0.25,1,0],[0,0.75,0],[0,0.5,0],[0,0.25,0]];" parent="VdEeXPEz472dkXEGbix_-1" vertex="1">
            <mxGeometry x="1020" y="136.25" width="630" height="693.75" as="geometry" />
          </mxCell>
        </object>
        <mxCell id="h4q5f8DIi85qn1IgUrig-58" value="" style="shape=waypoint;sketch=0;size=6;pointerEvents=1;points=[];fillColor=#CCCCCC;resizable=0;rotatable=0;perimeter=centerPerimeter;snapToPoint=1;verticalAlign=top;strokeColor=#6881B3;fontColor=#0066CC;gradientColor=none;gradientDirection=north;strokeWidth=2;" parent="VdEeXPEz472dkXEGbix_-1" vertex="1">
          <mxGeometry x="900" y="770" width="40" height="40" as="geometry" />
        </mxCell>
        <mxCell id="h4q5f8DIi85qn1IgUrig-63" value="&lt;b style=&quot;font-size: 13px&quot;&gt;[images]&lt;br&gt;{payload: JSON}&lt;br&gt;&lt;/b&gt;" style="shape=mxgraph.bpmn.data;labelPosition=center;verticalLabelPosition=bottom;align=center;verticalAlign=top;whiteSpace=wrap;size=17;html=1;horizontal=1;movableLabel=1;fontSize=13;fillColor=#EAF6E4;gradientColor=#97d077;strokeColor=#82b366;shadow=0;" parent="VdEeXPEz472dkXEGbix_-1" vertex="1">
          <mxGeometry x="900" y="340" width="120" height="50" as="geometry">
            <mxPoint x="-1" y="-43" as="offset" />
          </mxGeometry>
        </mxCell>
        <object placeholders="1" c4Name="Data Pre-processing Module" c4Type="Software System" c4Description="Data Pre-processing Module handling the data to match the inputs of image classifier/object detector" label="&lt;font style=&quot;font-size: 16px&quot;&gt;&lt;b&gt;%c4Name%&lt;/b&gt;&lt;/font&gt;&lt;div&gt;[%c4Type%]&lt;/div&gt;&lt;br&gt;&lt;div&gt;&lt;font style=&quot;font-size: 11px&quot;&gt;&lt;font color=&quot;#cccccc&quot;&gt;%c4Description%&lt;/font&gt;&lt;/div&gt;" id="h4q5f8DIi85qn1IgUrig-65">
          <mxCell style="rounded=1;whiteSpace=wrap;html=1;labelBackgroundColor=none;fillColor=#1061B0;fontColor=#ffffff;align=center;arcSize=10;strokeColor=#0D5091;metaEdit=1;resizable=0;points=[[0.25,0,0],[0.5,0,0],[0.75,0,0],[1,0.25,0],[1,0.5,0],[1,0.75,0],[0.75,1,0],[0.5,1,0],[0.25,1,0],[0,0.75,0],[0,0.5,0],[0,0.25,0]];" parent="VdEeXPEz472dkXEGbix_-1" vertex="1">
            <mxGeometry x="1240" y="206.25" width="240" height="120" as="geometry" />
          </mxCell>
        </object>
        <object placeholders="1" c4Name="Quality Control AI Service" c4Type="Software System" c4Description="Image Classifier/Object Detection Model&#xa;[TensorFlow/PyTorch]" label="&lt;font style=&quot;font-size: 16px&quot;&gt;&lt;b&gt;%c4Name%&lt;/b&gt;&lt;/font&gt;&lt;div&gt;[%c4Type%]&lt;/div&gt;&lt;br&gt;&lt;div&gt;&lt;font style=&quot;font-size: 11px&quot;&gt;&lt;font color=&quot;#cccccc&quot;&gt;%c4Description%&lt;/font&gt;&lt;/div&gt;" id="h4q5f8DIi85qn1IgUrig-66">
          <mxCell style="rounded=1;whiteSpace=wrap;html=1;labelBackgroundColor=none;fillColor=#1061B0;fontColor=#ffffff;align=center;arcSize=10;strokeColor=#0D5091;metaEdit=1;resizable=0;points=[[0.25,0,0],[0.5,0,0],[0.75,0,0],[1,0.25,0],[1,0.5,0],[1,0.75,0],[0.75,1,0],[0.5,1,0],[0.25,1,0],[0,0.75,0],[0,0.5,0],[0,0.25,0]];" parent="VdEeXPEz472dkXEGbix_-1" vertex="1">
            <mxGeometry x="1390" y="430" width="240" height="120" as="geometry" />
          </mxCell>
        </object>
        <mxCell id="h4q5f8DIi85qn1IgUrig-70" value="&lt;b style=&quot;font-size: 13px&quot;&gt;[results]&lt;br&gt;{plain/text}&lt;br&gt;&lt;/b&gt;" style="shape=mxgraph.bpmn.data;labelPosition=center;verticalLabelPosition=bottom;align=center;verticalAlign=top;whiteSpace=wrap;size=17;html=1;horizontal=1;movableLabel=1;fontSize=13;fillColor=#EAF6E4;gradientColor=#97d077;strokeColor=#6c8ebf;" parent="VdEeXPEz472dkXEGbix_-1" vertex="1">
          <mxGeometry x="1130" y="570" width="90" height="50" as="geometry">
            <mxPoint x="-8" y="-46" as="offset" />
          </mxGeometry>
        </mxCell>
        <mxCell id="h4q5f8DIi85qn1IgUrig-71" value="&lt;b style=&quot;font-size: 13px&quot;&gt;[processed images/&lt;br&gt;tensors]&lt;br&gt;&lt;/b&gt;" style="shape=mxgraph.bpmn.data;labelPosition=center;verticalLabelPosition=bottom;align=center;verticalAlign=top;whiteSpace=wrap;size=17;html=1;horizontal=1;movableLabel=1;fontSize=13;fillColor=#EAF6E4;gradientColor=#97d077;strokeColor=#6c8ebf;" parent="VdEeXPEz472dkXEGbix_-1" vertex="1">
          <mxGeometry x="1530" y="250" width="90" height="70" as="geometry">
            <mxPoint x="-4" y="-61" as="offset" />
          </mxGeometry>
        </mxCell>
        <mxCell id="h4q5f8DIi85qn1IgUrig-74" value="&lt;b style=&quot;font-size: 13px&quot;&gt;[results]&lt;br&gt;{JSON}&lt;br&gt;&lt;/b&gt;" style="shape=mxgraph.bpmn.data;labelPosition=center;verticalLabelPosition=bottom;align=center;verticalAlign=top;whiteSpace=wrap;size=17;html=1;horizontal=1;movableLabel=1;fontSize=13;fillColor=#EAF6E4;gradientColor=#97d077;strokeColor=#6c8ebf;" parent="VdEeXPEz472dkXEGbix_-1" vertex="1">
          <mxGeometry x="1010" y="490" width="70" height="48.75" as="geometry">
            <mxPoint x="-5" y="-42" as="offset" />
          </mxGeometry>
        </mxCell>
        <mxCell id="h4q5f8DIi85qn1IgUrig-77" value="" style="shape=curlyBracket;whiteSpace=wrap;html=1;rounded=1;fontSize=13;strokeColor=#000000;fillColor=#FFFFFF;rotation=90;dashed=1;" parent="VdEeXPEz472dkXEGbix_-1" vertex="1">
          <mxGeometry x="460.32" y="-375.93" width="60" height="916.87" as="geometry" />
        </mxCell>
        <mxCell id="h4q5f8DIi85qn1IgUrig-78" value="QS4PAUL" style="text;html=1;align=center;verticalAlign=middle;resizable=0;points=[];autosize=1;strokeColor=none;fillColor=none;fontSize=18;fontStyle=1" parent="VdEeXPEz472dkXEGbix_-1" vertex="1">
          <mxGeometry x="450" y="20" width="100" height="30" as="geometry" />
        </mxCell>
        <mxCell id="h4q5f8DIi85qn1IgUrig-79" value="" style="shape=curlyBracket;whiteSpace=wrap;html=1;rounded=1;fontSize=13;strokeColor=#000000;fillColor=#FFFFFF;rotation=90;dashed=1;" parent="VdEeXPEz472dkXEGbix_-1" vertex="1">
          <mxGeometry x="1300" y="-240" width="60" height="637.5" as="geometry" />
        </mxCell>
        <mxCell id="h4q5f8DIi85qn1IgUrig-80" value="AIaaS Platform&amp;nbsp;" style="text;html=1;align=center;verticalAlign=middle;resizable=0;points=[];autosize=1;strokeColor=none;fillColor=none;fontSize=18;fontStyle=1" parent="VdEeXPEz472dkXEGbix_-1" vertex="1">
          <mxGeometry x="1250" y="16.25" width="150" height="30" as="geometry" />
        </mxCell>
        <mxCell id="DwjBmbq_NsXV9-SrU4Ay-0" value="&lt;b style=&quot;font-size: 13px&quot;&gt;[results]&lt;br&gt;&lt;/b&gt;" style="shape=mxgraph.bpmn.data;labelPosition=center;verticalLabelPosition=bottom;align=center;verticalAlign=top;whiteSpace=wrap;size=17;html=1;horizontal=1;movableLabel=1;fontSize=13;fillColor=#dae8fc;gradientColor=#7ea6e0;strokeColor=#6c8ebf;" parent="VdEeXPEz472dkXEGbix_-1" vertex="1">
          <mxGeometry x="1520" y="640" width="66" height="37.5" as="geometry">
            <mxPoint x="-1" y="-28" as="offset" />
          </mxGeometry>
        </mxCell>
        <mxCell id="XWlHkCPT7bJsL34XKYJS-3" value="&lt;b style=&quot;font-size: 13px;&quot;&gt;[10 images]&lt;/b&gt;" style="shape=mxgraph.bpmn.data;labelPosition=center;verticalLabelPosition=bottom;align=center;verticalAlign=top;whiteSpace=wrap;size=17;html=1;horizontal=1;movableLabel=1;fontSize=13;fillColor=#EAF6E4;gradientColor=#97d077;strokeColor=#6c8ebf;" vertex="1" parent="VdEeXPEz472dkXEGbix_-1">
          <mxGeometry x="210" y="750" width="60" height="50" as="geometry">
            <mxPoint y="-46" as="offset" />
          </mxGeometry>
        </mxCell>
        <object placeholders="1" c4Type="Relationship" c4Technology="API" c4Description="Send the captured images &#xa;to pre-processing" label="&lt;div style=&quot;text-align: left&quot;&gt;&lt;div style=&quot;text-align: center&quot;&gt;&lt;b&gt;%c4Description%&lt;/b&gt;&lt;/div&gt;&lt;div style=&quot;text-align: center&quot;&gt;[%c4Technology%]&lt;/div&gt;&lt;/div&gt;" id="XWlHkCPT7bJsL34XKYJS-5">
          <mxCell style="endArrow=blockThin;html=1;fontSize=10;fontColor=#404040;strokeWidth=1;endFill=1;strokeColor=#828282;elbow=vertical;metaEdit=1;endSize=14;startSize=14;jumpStyle=arc;jumpSize=16;rounded=0;edgeStyle=orthogonalEdgeStyle;entryX=0;entryY=0.5;entryDx=0;entryDy=0;entryPerimeter=0;exitX=0.5;exitY=1;exitDx=0;exitDy=0;exitPerimeter=0;" edge="1" parent="VdEeXPEz472dkXEGbix_-1" source="h4q5f8DIi85qn1IgUrig-7" target="h4q5f8DIi85qn1IgUrig-42">
            <mxGeometry x="-0.3" width="240" relative="1" as="geometry">
              <mxPoint x="70" y="710" as="sourcePoint" />
              <mxPoint x="310" y="710" as="targetPoint" />
              <mxPoint as="offset" />
            </mxGeometry>
          </mxCell>
        </object>
        <object placeholders="1" c4Type="Relationship" c4Technology="JSON/HTTP" c4Description="Send the pre-processed images&#xa;to communication module" label="&lt;div style=&quot;text-align: left&quot;&gt;&lt;div style=&quot;text-align: center&quot;&gt;&lt;b&gt;%c4Description%&lt;/b&gt;&lt;/div&gt;&lt;div style=&quot;text-align: center&quot;&gt;[%c4Technology%]&lt;/div&gt;&lt;/div&gt;" id="XWlHkCPT7bJsL34XKYJS-7">
          <mxCell style="endArrow=blockThin;html=1;fontSize=10;fontColor=#404040;strokeWidth=1;endFill=1;strokeColor=#828282;elbow=vertical;metaEdit=1;endSize=14;startSize=14;jumpStyle=arc;jumpSize=16;rounded=0;edgeStyle=orthogonalEdgeStyle;exitX=1;exitY=0.5;exitDx=0;exitDy=0;exitPerimeter=0;entryX=0.25;entryY=1;entryDx=0;entryDy=0;entryPerimeter=0;" edge="1" parent="VdEeXPEz472dkXEGbix_-1" source="h4q5f8DIi85qn1IgUrig-42" target="h4q5f8DIi85qn1IgUrig-39">
            <mxGeometry x="-0.0968" y="40" width="240" relative="1" as="geometry">
              <mxPoint x="730" y="570" as="sourcePoint" />
              <mxPoint x="970" y="570" as="targetPoint" />
              <mxPoint as="offset" />
            </mxGeometry>
          </mxCell>
        </object>
        <object placeholders="1" c4Type="Relationship" c4Technology="JSON/HTTP" c4Description="Send commands &#xa;and receive status feedbacks &#xa;from application" label="&lt;div style=&quot;text-align: left&quot;&gt;&lt;div style=&quot;text-align: center&quot;&gt;&lt;b&gt;%c4Description%&lt;/b&gt;&lt;/div&gt;&lt;div style=&quot;text-align: center&quot;&gt;[%c4Technology%]&lt;/div&gt;&lt;/div&gt;" id="XWlHkCPT7bJsL34XKYJS-9">
          <mxCell style="endArrow=blockThin;html=1;fontSize=10;fontColor=#404040;strokeWidth=1;endFill=1;strokeColor=#828282;elbow=vertical;metaEdit=1;endSize=14;startSize=14;jumpStyle=arc;jumpSize=16;rounded=0;edgeStyle=orthogonalEdgeStyle;exitX=0;exitY=0.5;exitDx=0;exitDy=0;exitPerimeter=0;entryX=1;entryY=0.75;entryDx=0;entryDy=0;entryPerimeter=0;" edge="1" parent="VdEeXPEz472dkXEGbix_-1" source="h4q5f8DIi85qn1IgUrig-39" target="h4q5f8DIi85qn1IgUrig-7">
            <mxGeometry x="0.1724" width="240" relative="1" as="geometry">
              <mxPoint x="730" y="570" as="sourcePoint" />
              <mxPoint x="970" y="570" as="targetPoint" />
              <Array as="points">
                <mxPoint x="600" y="500" />
                <mxPoint x="600" y="640" />
              </Array>
              <mxPoint as="offset" />
            </mxGeometry>
          </mxCell>
        </object>
        <object placeholders="1" c4Type="Relationship" c4Technology="JSON/HTTP" c4Description="GUI Interactions &#xa;(worker inputs &amp; results) &#xa;to &amp; from User " label="&lt;div style=&quot;text-align: left&quot;&gt;&lt;div style=&quot;text-align: center&quot;&gt;&lt;b&gt;%c4Description%&lt;/b&gt;&lt;/div&gt;&lt;div style=&quot;text-align: center&quot;&gt;[%c4Technology%]&lt;/div&gt;&lt;/div&gt;" id="XWlHkCPT7bJsL34XKYJS-10">
          <mxCell style="endArrow=blockThin;html=1;fontSize=10;fontColor=#404040;strokeWidth=1;endFill=1;strokeColor=#828282;elbow=vertical;metaEdit=1;endSize=14;startSize=14;jumpStyle=arc;jumpSize=16;rounded=0;edgeStyle=orthogonalEdgeStyle;exitX=0.5;exitY=1;exitDx=0;exitDy=0;exitPerimeter=0;entryX=0.5;entryY=0;entryDx=0;entryDy=0;entryPerimeter=0;" edge="1" parent="VdEeXPEz472dkXEGbix_-1" source="h4q5f8DIi85qn1IgUrig-39" target="h4q5f8DIi85qn1IgUrig-61">
            <mxGeometry x="0.1429" y="-10" width="240" relative="1" as="geometry">
              <mxPoint x="730" y="570" as="sourcePoint" />
              <mxPoint x="970" y="570" as="targetPoint" />
              <mxPoint as="offset" />
            </mxGeometry>
          </mxCell>
        </object>
        <object placeholders="1" c4Type="Relationship" c4Technology="MQTT/KAFKA" c4Description="Send Images to &#xa;AI Service &#xa;and get results &#xa;from AI service" label="&lt;div style=&quot;text-align: left&quot;&gt;&lt;div style=&quot;text-align: center&quot;&gt;&lt;b&gt;%c4Description%&lt;/b&gt;&lt;/div&gt;&lt;div style=&quot;text-align: center&quot;&gt;[%c4Technology%]&lt;/div&gt;&lt;/div&gt;" id="XWlHkCPT7bJsL34XKYJS-12">
          <mxCell style="endArrow=blockThin;html=1;fontSize=10;fontColor=#404040;strokeWidth=1;endFill=1;strokeColor=#828282;elbow=vertical;metaEdit=1;endSize=14;startSize=14;jumpStyle=arc;jumpSize=16;rounded=0;edgeStyle=orthogonalEdgeStyle;exitX=1;exitY=0.5;exitDx=0;exitDy=0;exitPerimeter=0;entryX=0;entryY=0.5;entryDx=0;entryDy=0;entryPerimeter=0;" edge="1" parent="VdEeXPEz472dkXEGbix_-1" source="h4q5f8DIi85qn1IgUrig-39" target="h4q5f8DIi85qn1IgUrig-62">
            <mxGeometry x="0.0295" width="240" relative="1" as="geometry">
              <mxPoint x="820" y="650" as="sourcePoint" />
              <mxPoint x="1060" y="650" as="targetPoint" />
              <mxPoint as="offset" />
            </mxGeometry>
          </mxCell>
        </object>
        <object placeholders="1" c4Type="Relationship" c4Technology="API" c4Description="Send Images &#xa;for Pre-processing" label="&lt;div style=&quot;text-align: left&quot;&gt;&lt;div style=&quot;text-align: center&quot;&gt;&lt;b&gt;%c4Description%&lt;/b&gt;&lt;/div&gt;&lt;div style=&quot;text-align: center&quot;&gt;[%c4Technology%]&lt;/div&gt;&lt;/div&gt;" id="XWlHkCPT7bJsL34XKYJS-13">
          <mxCell style="endArrow=blockThin;html=1;fontSize=10;fontColor=#404040;strokeWidth=1;endFill=1;strokeColor=#828282;elbow=vertical;metaEdit=1;endSize=14;startSize=14;jumpStyle=arc;jumpSize=16;rounded=0;edgeStyle=orthogonalEdgeStyle;exitX=0.5;exitY=0;exitDx=0;exitDy=0;exitPerimeter=0;entryX=0;entryY=0.5;entryDx=0;entryDy=0;entryPerimeter=0;" edge="1" parent="VdEeXPEz472dkXEGbix_-1" source="h4q5f8DIi85qn1IgUrig-62" target="h4q5f8DIi85qn1IgUrig-65">
            <mxGeometry x="-0.338" width="240" relative="1" as="geometry">
              <mxPoint x="750" y="340" as="sourcePoint" />
              <mxPoint x="990" y="340" as="targetPoint" />
              <mxPoint as="offset" />
            </mxGeometry>
          </mxCell>
        </object>
        <object placeholders="1" c4Type="Relationship" c4Technology="API" c4Description="Pre-processed tensors &#xa;to AI Module" label="&lt;div style=&quot;text-align: left&quot;&gt;&lt;div style=&quot;text-align: center&quot;&gt;&lt;b&gt;%c4Description%&lt;/b&gt;&lt;/div&gt;&lt;div style=&quot;text-align: center&quot;&gt;[%c4Technology%]&lt;/div&gt;&lt;/div&gt;" id="XWlHkCPT7bJsL34XKYJS-15">
          <mxCell style="endArrow=blockThin;html=1;fontSize=10;fontColor=#404040;strokeWidth=1;endFill=1;strokeColor=#828282;elbow=vertical;metaEdit=1;endSize=14;startSize=14;jumpStyle=arc;jumpSize=16;rounded=0;edgeStyle=orthogonalEdgeStyle;exitX=1;exitY=0.5;exitDx=0;exitDy=0;exitPerimeter=0;entryX=0.5;entryY=0;entryDx=0;entryDy=0;entryPerimeter=0;" edge="1" parent="VdEeXPEz472dkXEGbix_-1" source="h4q5f8DIi85qn1IgUrig-65" target="h4q5f8DIi85qn1IgUrig-66">
            <mxGeometry x="0.3805" width="240" relative="1" as="geometry">
              <mxPoint x="750" y="440" as="sourcePoint" />
              <mxPoint x="990" y="440" as="targetPoint" />
              <mxPoint as="offset" />
            </mxGeometry>
          </mxCell>
        </object>
        <object placeholders="1" c4Type="Relationship" c4Technology="API" c4Description="Raw results &#xa;from AI Module" label="&lt;div style=&quot;text-align: left&quot;&gt;&lt;div style=&quot;text-align: center&quot;&gt;&lt;b&gt;%c4Description%&lt;/b&gt;&lt;/div&gt;&lt;div style=&quot;text-align: center&quot;&gt;[%c4Technology%]&lt;/div&gt;&lt;/div&gt;" id="XWlHkCPT7bJsL34XKYJS-16">
          <mxCell style="endArrow=blockThin;html=1;fontSize=10;fontColor=#404040;strokeWidth=1;endFill=1;strokeColor=#828282;elbow=vertical;metaEdit=1;endSize=14;startSize=14;jumpStyle=arc;jumpSize=16;rounded=0;edgeStyle=orthogonalEdgeStyle;exitX=0.5;exitY=1;exitDx=0;exitDy=0;exitPerimeter=0;entryX=1;entryY=0.5;entryDx=0;entryDy=0;entryPerimeter=0;" edge="1" parent="VdEeXPEz472dkXEGbix_-1" source="h4q5f8DIi85qn1IgUrig-66" target="h4q5f8DIi85qn1IgUrig-49">
            <mxGeometry x="-0.4286" width="240" relative="1" as="geometry">
              <mxPoint x="790" y="450" as="sourcePoint" />
              <mxPoint x="1030" y="450" as="targetPoint" />
              <mxPoint as="offset" />
            </mxGeometry>
          </mxCell>
        </object>
        <object placeholders="1" c4Type="Relationship" c4Technology="API" c4Description="Send the matched classes &#xa;to Communication module" label="&lt;div style=&quot;text-align: left&quot;&gt;&lt;div style=&quot;text-align: center&quot;&gt;&lt;b&gt;%c4Description%&lt;/b&gt;&lt;/div&gt;&lt;div style=&quot;text-align: center&quot;&gt;[%c4Technology%]&lt;/div&gt;&lt;/div&gt;" id="XWlHkCPT7bJsL34XKYJS-17">
          <mxCell style="endArrow=blockThin;html=1;fontSize=10;fontColor=#404040;strokeWidth=1;endFill=1;strokeColor=#828282;elbow=vertical;metaEdit=1;endSize=14;startSize=14;jumpStyle=arc;jumpSize=16;rounded=0;edgeStyle=orthogonalEdgeStyle;exitX=0.5;exitY=0;exitDx=0;exitDy=0;exitPerimeter=0;entryX=0.5;entryY=1;entryDx=0;entryDy=0;entryPerimeter=0;" edge="1" parent="VdEeXPEz472dkXEGbix_-1" source="h4q5f8DIi85qn1IgUrig-49" target="h4q5f8DIi85qn1IgUrig-62">
            <mxGeometry x="-0.5871" width="240" relative="1" as="geometry">
              <mxPoint x="790" y="450" as="sourcePoint" />
              <mxPoint x="1030" y="450" as="targetPoint" />
              <mxPoint as="offset" />
            </mxGeometry>
          </mxCell>
        </object>
        <mxCell id="XWlHkCPT7bJsL34XKYJS-19" value="&lt;b style=&quot;font-size: 13px&quot;&gt;[results]&lt;br&gt;&lt;/b&gt;" style="shape=mxgraph.bpmn.data;labelPosition=center;verticalLabelPosition=bottom;align=center;verticalAlign=top;whiteSpace=wrap;size=17;html=1;horizontal=1;movableLabel=1;fontSize=13;fillColor=#dae8fc;gradientColor=#7ea6e0;strokeColor=#6c8ebf;" vertex="1" parent="VdEeXPEz472dkXEGbix_-1">
          <mxGeometry x="1520" y="640" width="66" height="37.5" as="geometry">
            <mxPoint x="-1" y="-28" as="offset" />
          </mxGeometry>
        </mxCell>
        <mxCell id="XWlHkCPT7bJsL34XKYJS-21" value="&lt;b style=&quot;font-size: 13px&quot;&gt;[results]&lt;br&gt;&lt;/b&gt;" style="shape=mxgraph.bpmn.data;labelPosition=center;verticalLabelPosition=bottom;align=center;verticalAlign=top;whiteSpace=wrap;size=17;html=1;horizontal=1;movableLabel=1;fontSize=13;fillColor=#EAF6E4;gradientColor=#97d077;strokeColor=#6c8ebf;" vertex="1" parent="VdEeXPEz472dkXEGbix_-1">
          <mxGeometry x="1520" y="640" width="66" height="37.5" as="geometry">
            <mxPoint x="-1" y="-28" as="offset" />
          </mxGeometry>
        </mxCell>
        <mxCell id="XWlHkCPT7bJsL34XKYJS-22" value="&lt;b style=&quot;font-size: 13px&quot;&gt;[commands]&lt;br&gt;&lt;/b&gt;" style="shape=mxgraph.bpmn.data;labelPosition=center;verticalLabelPosition=bottom;align=center;verticalAlign=top;whiteSpace=wrap;size=17;html=1;horizontal=1;movableLabel=1;fontSize=13;fillColor=#EAF6E4;gradientColor=#97d077;strokeColor=#6c8ebf;" vertex="1" parent="VdEeXPEz472dkXEGbix_-1">
          <mxGeometry x="350" y="590" width="100" height="36" as="geometry">
            <mxPoint x="2" y="-27" as="offset" />
          </mxGeometry>
        </mxCell>
        <mxCell id="XWlHkCPT7bJsL34XKYJS-24" value="&lt;b style=&quot;font-size: 13px&quot;&gt;[6 images]&lt;/b&gt;" style="shape=mxgraph.bpmn.data;labelPosition=center;verticalLabelPosition=bottom;align=center;verticalAlign=top;whiteSpace=wrap;size=17;html=1;horizontal=1;movableLabel=1;fontSize=13;fillColor=#EAF6E4;gradientColor=#97d077;strokeColor=#6c8ebf;" vertex="1" parent="VdEeXPEz472dkXEGbix_-1">
          <mxGeometry x="570" y="740" width="60" height="50" as="geometry">
            <mxPoint y="-46" as="offset" />
          </mxGeometry>
        </mxCell>
        <mxCell id="XWlHkCPT7bJsL34XKYJS-25" value="&lt;b style=&quot;font-size: 13px&quot;&gt;[results]&lt;br&gt;&lt;/b&gt;" style="shape=mxgraph.bpmn.data;labelPosition=center;verticalLabelPosition=bottom;align=center;verticalAlign=top;whiteSpace=wrap;size=17;html=1;horizontal=1;movableLabel=1;fontSize=13;fillColor=#EAF6E4;gradientColor=#97d077;strokeColor=#6c8ebf;" vertex="1" parent="VdEeXPEz472dkXEGbix_-1">
          <mxGeometry x="730" y="830" width="66" height="37.5" as="geometry">
            <mxPoint x="-1" y="-28" as="offset" />
          </mxGeometry>
        </mxCell>
        <mxCell id="XWlHkCPT7bJsL34XKYJS-26" value="&lt;b style=&quot;font-size: 13px&quot;&gt;[worker inputs]&lt;br&gt;&lt;/b&gt;" style="shape=mxgraph.bpmn.data;labelPosition=center;verticalLabelPosition=bottom;align=center;verticalAlign=top;whiteSpace=wrap;size=17;html=1;horizontal=1;movableLabel=1;fontSize=13;fillColor=#EAF6E4;gradientColor=#97d077;strokeColor=#6c8ebf;" vertex="1" parent="VdEeXPEz472dkXEGbix_-1">
          <mxGeometry x="810" y="660" width="100" height="37.5" as="geometry">
            <mxPoint x="-1" y="-35" as="offset" />
          </mxGeometry>
        </mxCell>
        <mxCell id="XWlHkCPT7bJsL34XKYJS-27" value="&lt;b style=&quot;font-size: 13px&quot;&gt;[6 images]&lt;/b&gt;" style="shape=mxgraph.bpmn.data;labelPosition=center;verticalLabelPosition=bottom;align=center;verticalAlign=top;whiteSpace=wrap;size=17;html=1;horizontal=1;movableLabel=1;fontSize=13;fillColor=#EAF6E4;gradientColor=#97d077;strokeColor=#6c8ebf;" vertex="1" parent="VdEeXPEz472dkXEGbix_-1">
          <mxGeometry x="1150" y="210" width="60" height="50" as="geometry">
            <mxPoint y="-46" as="offset" />
          </mxGeometry>
        </mxCell>
        <mxCell id="XWlHkCPT7bJsL34XKYJS-28" value="&lt;b style=&quot;font-size: 13px&quot;&gt;[status]&lt;br&gt;&lt;/b&gt;" style="shape=mxgraph.bpmn.data;labelPosition=center;verticalLabelPosition=bottom;align=center;verticalAlign=top;whiteSpace=wrap;size=17;html=1;horizontal=1;movableLabel=1;fontSize=13;fillColor=#EAF6E4;gradientColor=#97d077;strokeColor=#6c8ebf;" vertex="1" parent="VdEeXPEz472dkXEGbix_-1">
          <mxGeometry x="450" y="560" width="100" height="36" as="geometry">
            <mxPoint x="2" y="-27" as="offset" />
          </mxGeometry>
        </mxCell>
      </root>
    </mxGraphModel>
  </diagram>
</mxfile>
